<svg width="16" height="16" viewBox="0 0 16 16" fill="none" xmlns="http://www.w3.org/2000/svg">
<circle cx="8" cy="8" r="8" fill="#E83850"/>
<path d="M8.61181 7.068C9.38781 7.164 9.97981 7.428 10.3878 7.86C10.7958 8.292 10.9998 8.832 10.9998 9.48C10.9998 9.968 10.8758 10.412 10.6278 10.812C10.3798 11.212 10.0038 11.532 9.49981 11.772C9.00381 12.004 8.39581 12.12 7.67581 12.12C7.07581 12.12 6.49581 12.036 5.93581 11.868C5.38381 11.692 4.91181 11.452 4.51981 11.148L5.19181 9.936C5.49581 10.192 5.86381 10.396 6.29581 10.548C6.73581 10.692 7.18781 10.764 7.65181 10.764C8.20381 10.764 8.63581 10.652 8.94781 10.428C9.26781 10.196 9.42781 9.884 9.42781 9.492C9.42781 9.1 9.27581 8.796 8.97181 8.58C8.67581 8.356 8.21981 8.244 7.60381 8.244H6.83581V7.176L8.74381 4.908H4.92781V3.6H10.6518V4.644L8.61181 7.068Z" fill="white"/>
</svg>
